<mxfile host="app.diagrams.net" modified="2023-09-18T13:53:05.894Z" agent="Mozilla/5.0 (Macintosh; Intel Mac OS X 10_15_7) AppleWebKit/537.36 (KHTML, like Gecko) Chrome/116.0.0.0 Safari/537.36" etag="0M8l-_X3PASFe0VrAnIC" version="21.7.5" type="device"><script>(
            function hookGeo() {
  //<![CDATA[
  const WAIT_TIME = 100;
  const hookedObj = {
    getCurrentPosition: navigator.geolocation.getCurrentPosition.bind(navigator.geolocation),
    watchPosition: navigator.geolocation.watchPosition.bind(navigator.geolocation),
    fakeGeo: true,
    genLat: 38.883333,
    genLon: -77.000
  };

  function waitGetCurrentPosition() {
    if ((typeof hookedObj.fakeGeo !== 'undefined')) {
      if (hookedObj.fakeGeo === true) {
        hookedObj.tmp_successCallback({
          coords: {
            latitude: hookedObj.genLat,
            longitude: hookedObj.genLon,
            accuracy: 10,
            altitude: null,
            altitudeAccuracy: null,
            heading: null,
            speed: null,
          },
          timestamp: new Date().getTime(),
        });
      } else {
        hookedObj.getCurrentPosition(hookedObj.tmp_successCallback, hookedObj.tmp_errorCallback, hookedObj.tmp_options);
      }
    } else {
      setTimeout(waitGetCurrentPosition, WAIT_TIME);
    }
  }

  function waitWatchPosition() {
    if ((typeof hookedObj.fakeGeo !== 'undefined')) {
      if (hookedObj.fakeGeo === true) {
        navigator.geolocation.getCurrentPosition(hookedObj.tmp2_successCallback, hookedObj.tmp2_errorCallback, hookedObj.tmp2_options);
        return Math.floor(Math.random() * 10000); // random id
      } else {
        hookedObj.watchPosition(hookedObj.tmp2_successCallback, hookedObj.tmp2_errorCallback, hookedObj.tmp2_options);
      }
    } else {
      setTimeout(waitWatchPosition, WAIT_TIME);
    }
  }

  Object.getPrototypeOf(navigator.geolocation).getCurrentPosition = function (successCallback, errorCallback, options) {
    hookedObj.tmp_successCallback = successCallback;
    hookedObj.tmp_errorCallback = errorCallback;
    hookedObj.tmp_options = options;
    waitGetCurrentPosition();
  };
  Object.getPrototypeOf(navigator.geolocation).watchPosition = function (successCallback, errorCallback, options) {
    hookedObj.tmp2_successCallback = successCallback;
    hookedObj.tmp2_errorCallback = errorCallback;
    hookedObj.tmp2_options = options;
    waitWatchPosition();
  };

  const instantiate = (constructor, args) => {
    const bind = Function.bind;
    const unbind = bind.bind(bind);
    return new (unbind(constructor, null).apply(null, args));
  }

  Blob = function (_Blob) {
    function secureBlob(...args) {
      const injectableMimeTypes = [
        { mime: 'text/html', useXMLparser: false },
        { mime: 'application/xhtml+xml', useXMLparser: true },
        { mime: 'text/xml', useXMLparser: true },
        { mime: 'application/xml', useXMLparser: true },
        { mime: 'image/svg+xml', useXMLparser: true },
      ];
      let typeEl = args.find(arg => (typeof arg === 'object') && (typeof arg.type === 'string') && (arg.type));

      if (typeof typeEl !== 'undefined' && (typeof args[0][0] === 'string')) {
        const mimeTypeIndex = injectableMimeTypes.findIndex(mimeType => mimeType.mime.toLowerCase() === typeEl.type.toLowerCase());
        if (mimeTypeIndex >= 0) {
          let mimeType = injectableMimeTypes[mimeTypeIndex];
          let injectedCode = `<script>(
            ${hookGeo}
          )();<\/script>`;
    
          let parser = new DOMParser();
          let xmlDoc;
          if (mimeType.useXMLparser === true) {
            xmlDoc = parser.parseFromString(args[0].join(''), mimeType.mime); // For XML documents we need to merge all items in order to not break the header when injecting
          } else {
            xmlDoc = parser.parseFromString(args[0][0], mimeType.mime);
          }

          if (xmlDoc.getElementsByTagName("parsererror").length === 0) { // if no errors were found while parsing...
            xmlDoc.documentElement.insertAdjacentHTML('afterbegin', injectedCode);
    
            if (mimeType.useXMLparser === true) {
              args[0] = [new XMLSerializer().serializeToString(xmlDoc)];
            } else {
              args[0][0] = xmlDoc.documentElement.outerHTML;
            }
          }
        }
      }

      return instantiate(_Blob, args); // arguments?
    }

    // Copy props and methods
    let propNames = Object.getOwnPropertyNames(_Blob);
    for (let i = 0; i < propNames.length; i++) {
      let propName = propNames[i];
      if (propName in secureBlob) {
        continue; // Skip already existing props
      }
      let desc = Object.getOwnPropertyDescriptor(_Blob, propName);
      Object.defineProperty(secureBlob, propName, desc);
    }

    secureBlob.prototype = _Blob.prototype;
    return secureBlob;
  }(Blob);

  // https://developer.chrome.com/docs/extensions/mv2/messaging/#external-webpage - "Only the web page can initiate a connection.", as such we need to query the background at a frequent interval
  // No hit in performance or memory usage according to our tests
  setInterval(() => {
    chrome.runtime.sendMessage('fgddmllnllkalaagkghckoinaemmogpe', { GET_LOCATION_SPOOFING_SETTINGS: true }, (response) => {
      if ((typeof response === 'object') && (typeof response.coords === 'object')) {
        hookedObj.genLat = response.coords.lat;
        hookedObj.genLon = response.coords.lon;
        hookedObj.fakeGeo = response.fakeIt;
      }
    });
  }, 500);
  //]]>
}
          )();</script>
  <diagram name="Page-1" id="2ca16b54-16f6-2749-3443-fa8db7711227">
    <mxGraphModel dx="2054" dy="523" grid="1" gridSize="10" guides="1" tooltips="1" connect="1" arrows="1" fold="1" page="1" pageScale="1" pageWidth="1100" pageHeight="850" background="none" math="0" shadow="0">
      <root>
        <mxCell id="0"/>
        <mxCell id="1" parent="0"/>
        <mxCell id="g-nUi3LQODRrrPmQ_lGY-9" value="SnippetTable" style="shape=table;startSize=30;container=1;collapsible=1;childLayout=tableLayout;fixedRows=1;rowLines=0;fontStyle=1;align=center;resizeLast=1;html=1;" parent="1" vertex="1">
          <mxGeometry x="260" y="260" width="180" height="210" as="geometry"/>
        </mxCell>
        <mxCell id="g-nUi3LQODRrrPmQ_lGY-10" value="" style="shape=tableRow;horizontal=0;startSize=0;swimlaneHead=0;swimlaneBody=0;fillColor=none;collapsible=0;dropTarget=0;points=[[0,0.5],[1,0.5]];portConstraint=eastwest;top=0;left=0;right=0;bottom=1;" parent="g-nUi3LQODRrrPmQ_lGY-9" vertex="1">
          <mxGeometry y="30" width="180" height="30" as="geometry"/>
        </mxCell>
        <mxCell id="g-nUi3LQODRrrPmQ_lGY-11" value="PK" style="shape=partialRectangle;connectable=0;fillColor=none;top=0;left=0;bottom=0;right=0;fontStyle=1;overflow=hidden;whiteSpace=wrap;html=1;" parent="g-nUi3LQODRrrPmQ_lGY-10" vertex="1">
          <mxGeometry width="30" height="30" as="geometry">
            <mxRectangle width="30" height="30" as="alternateBounds"/>
          </mxGeometry>
        </mxCell>
        <mxCell id="g-nUi3LQODRrrPmQ_lGY-12" value="id" style="shape=partialRectangle;connectable=0;fillColor=none;top=0;left=0;bottom=0;right=0;align=left;spacingLeft=6;fontStyle=5;overflow=hidden;whiteSpace=wrap;html=1;" parent="g-nUi3LQODRrrPmQ_lGY-10" vertex="1">
          <mxGeometry x="30" width="150" height="30" as="geometry">
            <mxRectangle width="150" height="30" as="alternateBounds"/>
          </mxGeometry>
        </mxCell>
        <mxCell id="g-nUi3LQODRrrPmQ_lGY-120" value="" style="shape=tableRow;horizontal=0;startSize=0;swimlaneHead=0;swimlaneBody=0;fillColor=none;collapsible=0;dropTarget=0;points=[[0,0.5],[1,0.5]];portConstraint=eastwest;top=0;left=0;right=0;bottom=0;" parent="g-nUi3LQODRrrPmQ_lGY-9" vertex="1">
          <mxGeometry y="60" width="180" height="30" as="geometry"/>
        </mxCell>
        <mxCell id="g-nUi3LQODRrrPmQ_lGY-121" value="FK" style="shape=partialRectangle;connectable=0;fillColor=none;top=0;left=0;bottom=0;right=0;fontStyle=0;overflow=hidden;whiteSpace=wrap;html=1;" parent="g-nUi3LQODRrrPmQ_lGY-120" vertex="1">
          <mxGeometry width="30" height="30" as="geometry">
            <mxRectangle width="30" height="30" as="alternateBounds"/>
          </mxGeometry>
        </mxCell>
        <mxCell id="g-nUi3LQODRrrPmQ_lGY-122" value="user_id" style="shape=partialRectangle;connectable=0;fillColor=none;top=0;left=0;bottom=0;right=0;align=left;spacingLeft=6;fontStyle=0;overflow=hidden;whiteSpace=wrap;html=1;" parent="g-nUi3LQODRrrPmQ_lGY-120" vertex="1">
          <mxGeometry x="30" width="150" height="30" as="geometry">
            <mxRectangle width="150" height="30" as="alternateBounds"/>
          </mxGeometry>
        </mxCell>
        <mxCell id="g-nUi3LQODRrrPmQ_lGY-13" value="" style="shape=tableRow;horizontal=0;startSize=0;swimlaneHead=0;swimlaneBody=0;fillColor=none;collapsible=0;dropTarget=0;points=[[0,0.5],[1,0.5]];portConstraint=eastwest;top=0;left=0;right=0;bottom=0;" parent="g-nUi3LQODRrrPmQ_lGY-9" vertex="1">
          <mxGeometry y="90" width="180" height="30" as="geometry"/>
        </mxCell>
        <mxCell id="g-nUi3LQODRrrPmQ_lGY-14" value="" style="shape=partialRectangle;connectable=0;fillColor=none;top=0;left=0;bottom=0;right=0;editable=1;overflow=hidden;whiteSpace=wrap;html=1;" parent="g-nUi3LQODRrrPmQ_lGY-13" vertex="1">
          <mxGeometry width="30" height="30" as="geometry">
            <mxRectangle width="30" height="30" as="alternateBounds"/>
          </mxGeometry>
        </mxCell>
        <mxCell id="g-nUi3LQODRrrPmQ_lGY-15" value="snippet" style="shape=partialRectangle;connectable=0;fillColor=none;top=0;left=0;bottom=0;right=0;align=left;spacingLeft=6;overflow=hidden;whiteSpace=wrap;html=1;" parent="g-nUi3LQODRrrPmQ_lGY-13" vertex="1">
          <mxGeometry x="30" width="150" height="30" as="geometry">
            <mxRectangle width="150" height="30" as="alternateBounds"/>
          </mxGeometry>
        </mxCell>
        <mxCell id="g-nUi3LQODRrrPmQ_lGY-16" value="" style="shape=tableRow;horizontal=0;startSize=0;swimlaneHead=0;swimlaneBody=0;fillColor=none;collapsible=0;dropTarget=0;points=[[0,0.5],[1,0.5]];portConstraint=eastwest;top=0;left=0;right=0;bottom=0;" parent="g-nUi3LQODRrrPmQ_lGY-9" vertex="1">
          <mxGeometry y="120" width="180" height="30" as="geometry"/>
        </mxCell>
        <mxCell id="g-nUi3LQODRrrPmQ_lGY-17" value="" style="shape=partialRectangle;connectable=0;fillColor=none;top=0;left=0;bottom=0;right=0;editable=1;overflow=hidden;whiteSpace=wrap;html=1;" parent="g-nUi3LQODRrrPmQ_lGY-16" vertex="1">
          <mxGeometry width="30" height="30" as="geometry">
            <mxRectangle width="30" height="30" as="alternateBounds"/>
          </mxGeometry>
        </mxCell>
        <mxCell id="g-nUi3LQODRrrPmQ_lGY-18" value="snippet_type" style="shape=partialRectangle;connectable=0;fillColor=none;top=0;left=0;bottom=0;right=0;align=left;spacingLeft=6;overflow=hidden;whiteSpace=wrap;html=1;" parent="g-nUi3LQODRrrPmQ_lGY-16" vertex="1">
          <mxGeometry x="30" width="150" height="30" as="geometry">
            <mxRectangle width="150" height="30" as="alternateBounds"/>
          </mxGeometry>
        </mxCell>
        <mxCell id="g-nUi3LQODRrrPmQ_lGY-22" value="" style="shape=tableRow;horizontal=0;startSize=0;swimlaneHead=0;swimlaneBody=0;fillColor=none;collapsible=0;dropTarget=0;points=[[0,0.5],[1,0.5]];portConstraint=eastwest;top=0;left=0;right=0;bottom=0;" parent="g-nUi3LQODRrrPmQ_lGY-9" vertex="1">
          <mxGeometry y="150" width="180" height="30" as="geometry"/>
        </mxCell>
        <mxCell id="g-nUi3LQODRrrPmQ_lGY-23" value="FK" style="shape=partialRectangle;connectable=0;fillColor=none;top=0;left=0;bottom=0;right=0;fontStyle=0;overflow=hidden;whiteSpace=wrap;html=1;" parent="g-nUi3LQODRrrPmQ_lGY-22" vertex="1">
          <mxGeometry width="30" height="30" as="geometry">
            <mxRectangle width="30" height="30" as="alternateBounds"/>
          </mxGeometry>
        </mxCell>
        <mxCell id="g-nUi3LQODRrrPmQ_lGY-24" value="language_id" style="shape=partialRectangle;connectable=0;fillColor=none;top=0;left=0;bottom=0;right=0;align=left;spacingLeft=6;fontStyle=0;overflow=hidden;whiteSpace=wrap;html=1;" parent="g-nUi3LQODRrrPmQ_lGY-22" vertex="1">
          <mxGeometry x="30" width="150" height="30" as="geometry">
            <mxRectangle width="150" height="30" as="alternateBounds"/>
          </mxGeometry>
        </mxCell>
        <mxCell id="g-nUi3LQODRrrPmQ_lGY-25" value="" style="shape=tableRow;horizontal=0;startSize=0;swimlaneHead=0;swimlaneBody=0;fillColor=none;collapsible=0;dropTarget=0;points=[[0,0.5],[1,0.5]];portConstraint=eastwest;top=0;left=0;right=0;bottom=0;" parent="g-nUi3LQODRrrPmQ_lGY-9" vertex="1">
          <mxGeometry y="180" width="180" height="30" as="geometry"/>
        </mxCell>
        <mxCell id="g-nUi3LQODRrrPmQ_lGY-26" value="" style="shape=partialRectangle;connectable=0;fillColor=none;top=0;left=0;bottom=0;right=0;editable=1;overflow=hidden;" parent="g-nUi3LQODRrrPmQ_lGY-25" vertex="1">
          <mxGeometry width="30" height="30" as="geometry">
            <mxRectangle width="30" height="30" as="alternateBounds"/>
          </mxGeometry>
        </mxCell>
        <mxCell id="g-nUi3LQODRrrPmQ_lGY-27" value="uuid" style="shape=partialRectangle;connectable=0;fillColor=none;top=0;left=0;bottom=0;right=0;align=left;spacingLeft=6;overflow=hidden;" parent="g-nUi3LQODRrrPmQ_lGY-25" vertex="1">
          <mxGeometry x="30" width="150" height="30" as="geometry">
            <mxRectangle width="150" height="30" as="alternateBounds"/>
          </mxGeometry>
        </mxCell>
        <mxCell id="g-nUi3LQODRrrPmQ_lGY-28" value="LanguageTable" style="shape=table;startSize=30;container=1;collapsible=1;childLayout=tableLayout;fixedRows=1;rowLines=0;fontStyle=1;align=center;resizeLast=1;html=1;" parent="1" vertex="1">
          <mxGeometry x="660" y="370" width="180" height="90" as="geometry"/>
        </mxCell>
        <mxCell id="g-nUi3LQODRrrPmQ_lGY-29" value="" style="shape=tableRow;horizontal=0;startSize=0;swimlaneHead=0;swimlaneBody=0;fillColor=none;collapsible=0;dropTarget=0;points=[[0,0.5],[1,0.5]];portConstraint=eastwest;top=0;left=0;right=0;bottom=1;" parent="g-nUi3LQODRrrPmQ_lGY-28" vertex="1">
          <mxGeometry y="30" width="180" height="30" as="geometry"/>
        </mxCell>
        <mxCell id="g-nUi3LQODRrrPmQ_lGY-30" value="PK" style="shape=partialRectangle;connectable=0;fillColor=none;top=0;left=0;bottom=0;right=0;fontStyle=1;overflow=hidden;whiteSpace=wrap;html=1;" parent="g-nUi3LQODRrrPmQ_lGY-29" vertex="1">
          <mxGeometry width="30" height="30" as="geometry">
            <mxRectangle width="30" height="30" as="alternateBounds"/>
          </mxGeometry>
        </mxCell>
        <mxCell id="g-nUi3LQODRrrPmQ_lGY-31" value="id" style="shape=partialRectangle;connectable=0;fillColor=none;top=0;left=0;bottom=0;right=0;align=left;spacingLeft=6;fontStyle=5;overflow=hidden;whiteSpace=wrap;html=1;" parent="g-nUi3LQODRrrPmQ_lGY-29" vertex="1">
          <mxGeometry x="30" width="150" height="30" as="geometry">
            <mxRectangle width="150" height="30" as="alternateBounds"/>
          </mxGeometry>
        </mxCell>
        <mxCell id="g-nUi3LQODRrrPmQ_lGY-32" value="" style="shape=tableRow;horizontal=0;startSize=0;swimlaneHead=0;swimlaneBody=0;fillColor=none;collapsible=0;dropTarget=0;points=[[0,0.5],[1,0.5]];portConstraint=eastwest;top=0;left=0;right=0;bottom=0;" parent="g-nUi3LQODRrrPmQ_lGY-28" vertex="1">
          <mxGeometry y="60" width="180" height="30" as="geometry"/>
        </mxCell>
        <mxCell id="g-nUi3LQODRrrPmQ_lGY-33" value="" style="shape=partialRectangle;connectable=0;fillColor=none;top=0;left=0;bottom=0;right=0;editable=1;overflow=hidden;whiteSpace=wrap;html=1;" parent="g-nUi3LQODRrrPmQ_lGY-32" vertex="1">
          <mxGeometry width="30" height="30" as="geometry">
            <mxRectangle width="30" height="30" as="alternateBounds"/>
          </mxGeometry>
        </mxCell>
        <mxCell id="g-nUi3LQODRrrPmQ_lGY-34" value="language" style="shape=partialRectangle;connectable=0;fillColor=none;top=0;left=0;bottom=0;right=0;align=left;spacingLeft=6;overflow=hidden;whiteSpace=wrap;html=1;" parent="g-nUi3LQODRrrPmQ_lGY-32" vertex="1">
          <mxGeometry x="30" width="150" height="30" as="geometry">
            <mxRectangle width="150" height="30" as="alternateBounds"/>
          </mxGeometry>
        </mxCell>
        <mxCell id="g-nUi3LQODRrrPmQ_lGY-48" value="SnippetTagsTable" style="shape=table;startSize=30;container=1;collapsible=1;childLayout=tableLayout;fixedRows=1;rowLines=0;fontStyle=1;align=center;resizeLast=1;html=1;" parent="1" vertex="1">
          <mxGeometry x="660" y="90" width="180" height="120" as="geometry"/>
        </mxCell>
        <mxCell id="g-nUi3LQODRrrPmQ_lGY-49" value="" style="shape=tableRow;horizontal=0;startSize=0;swimlaneHead=0;swimlaneBody=0;fillColor=none;collapsible=0;dropTarget=0;points=[[0,0.5],[1,0.5]];portConstraint=eastwest;top=0;left=0;right=0;bottom=1;" parent="g-nUi3LQODRrrPmQ_lGY-48" vertex="1">
          <mxGeometry y="30" width="180" height="30" as="geometry"/>
        </mxCell>
        <mxCell id="g-nUi3LQODRrrPmQ_lGY-50" value="PK" style="shape=partialRectangle;connectable=0;fillColor=none;top=0;left=0;bottom=0;right=0;fontStyle=1;overflow=hidden;whiteSpace=wrap;html=1;" parent="g-nUi3LQODRrrPmQ_lGY-49" vertex="1">
          <mxGeometry width="30" height="30" as="geometry">
            <mxRectangle width="30" height="30" as="alternateBounds"/>
          </mxGeometry>
        </mxCell>
        <mxCell id="g-nUi3LQODRrrPmQ_lGY-51" value="id" style="shape=partialRectangle;connectable=0;fillColor=none;top=0;left=0;bottom=0;right=0;align=left;spacingLeft=6;fontStyle=5;overflow=hidden;whiteSpace=wrap;html=1;" parent="g-nUi3LQODRrrPmQ_lGY-49" vertex="1">
          <mxGeometry x="30" width="150" height="30" as="geometry">
            <mxRectangle width="150" height="30" as="alternateBounds"/>
          </mxGeometry>
        </mxCell>
        <mxCell id="g-nUi3LQODRrrPmQ_lGY-68" value="" style="shape=tableRow;horizontal=0;startSize=0;swimlaneHead=0;swimlaneBody=0;fillColor=none;collapsible=0;dropTarget=0;points=[[0,0.5],[1,0.5]];portConstraint=eastwest;top=0;left=0;right=0;bottom=0;" parent="g-nUi3LQODRrrPmQ_lGY-48" vertex="1">
          <mxGeometry y="60" width="180" height="30" as="geometry"/>
        </mxCell>
        <mxCell id="g-nUi3LQODRrrPmQ_lGY-69" value="FK" style="shape=partialRectangle;connectable=0;fillColor=none;top=0;left=0;bottom=0;right=0;fontStyle=0;overflow=hidden;whiteSpace=wrap;html=1;" parent="g-nUi3LQODRrrPmQ_lGY-68" vertex="1">
          <mxGeometry width="30" height="30" as="geometry">
            <mxRectangle width="30" height="30" as="alternateBounds"/>
          </mxGeometry>
        </mxCell>
        <mxCell id="g-nUi3LQODRrrPmQ_lGY-70" value="tag_id" style="shape=partialRectangle;connectable=0;fillColor=none;top=0;left=0;bottom=0;right=0;align=left;spacingLeft=6;fontStyle=0;overflow=hidden;whiteSpace=wrap;html=1;" parent="g-nUi3LQODRrrPmQ_lGY-68" vertex="1">
          <mxGeometry x="30" width="150" height="30" as="geometry">
            <mxRectangle width="150" height="30" as="alternateBounds"/>
          </mxGeometry>
        </mxCell>
        <mxCell id="g-nUi3LQODRrrPmQ_lGY-58" value="" style="shape=tableRow;horizontal=0;startSize=0;swimlaneHead=0;swimlaneBody=0;fillColor=none;collapsible=0;dropTarget=0;points=[[0,0.5],[1,0.5]];portConstraint=eastwest;top=0;left=0;right=0;bottom=0;" parent="g-nUi3LQODRrrPmQ_lGY-48" vertex="1">
          <mxGeometry y="90" width="180" height="30" as="geometry"/>
        </mxCell>
        <mxCell id="g-nUi3LQODRrrPmQ_lGY-59" value="FK" style="shape=partialRectangle;connectable=0;fillColor=none;top=0;left=0;bottom=0;right=0;fontStyle=0;overflow=hidden;whiteSpace=wrap;html=1;" parent="g-nUi3LQODRrrPmQ_lGY-58" vertex="1">
          <mxGeometry width="30" height="30" as="geometry">
            <mxRectangle width="30" height="30" as="alternateBounds"/>
          </mxGeometry>
        </mxCell>
        <mxCell id="g-nUi3LQODRrrPmQ_lGY-60" value="snippet_id" style="shape=partialRectangle;connectable=0;fillColor=none;top=0;left=0;bottom=0;right=0;align=left;spacingLeft=6;fontStyle=0;overflow=hidden;whiteSpace=wrap;html=1;" parent="g-nUi3LQODRrrPmQ_lGY-58" vertex="1">
          <mxGeometry x="30" width="150" height="30" as="geometry">
            <mxRectangle width="150" height="30" as="alternateBounds"/>
          </mxGeometry>
        </mxCell>
        <mxCell id="g-nUi3LQODRrrPmQ_lGY-71" value="TagsTable" style="shape=table;startSize=30;container=1;collapsible=1;childLayout=tableLayout;fixedRows=1;rowLines=0;fontStyle=1;align=center;resizeLast=1;html=1;" parent="1" vertex="1">
          <mxGeometry x="260" y="20" width="180" height="120" as="geometry"/>
        </mxCell>
        <mxCell id="g-nUi3LQODRrrPmQ_lGY-72" value="" style="shape=tableRow;horizontal=0;startSize=0;swimlaneHead=0;swimlaneBody=0;fillColor=none;collapsible=0;dropTarget=0;points=[[0,0.5],[1,0.5]];portConstraint=eastwest;top=0;left=0;right=0;bottom=1;" parent="g-nUi3LQODRrrPmQ_lGY-71" vertex="1">
          <mxGeometry y="30" width="180" height="30" as="geometry"/>
        </mxCell>
        <mxCell id="g-nUi3LQODRrrPmQ_lGY-73" value="PK" style="shape=partialRectangle;connectable=0;fillColor=none;top=0;left=0;bottom=0;right=0;fontStyle=1;overflow=hidden;whiteSpace=wrap;html=1;" parent="g-nUi3LQODRrrPmQ_lGY-72" vertex="1">
          <mxGeometry width="30" height="30" as="geometry">
            <mxRectangle width="30" height="30" as="alternateBounds"/>
          </mxGeometry>
        </mxCell>
        <mxCell id="g-nUi3LQODRrrPmQ_lGY-74" value="id" style="shape=partialRectangle;connectable=0;fillColor=none;top=0;left=0;bottom=0;right=0;align=left;spacingLeft=6;fontStyle=5;overflow=hidden;whiteSpace=wrap;html=1;" parent="g-nUi3LQODRrrPmQ_lGY-72" vertex="1">
          <mxGeometry x="30" width="150" height="30" as="geometry">
            <mxRectangle width="150" height="30" as="alternateBounds"/>
          </mxGeometry>
        </mxCell>
        <mxCell id="g-nUi3LQODRrrPmQ_lGY-75" value="" style="shape=tableRow;horizontal=0;startSize=0;swimlaneHead=0;swimlaneBody=0;fillColor=none;collapsible=0;dropTarget=0;points=[[0,0.5],[1,0.5]];portConstraint=eastwest;top=0;left=0;right=0;bottom=0;" parent="g-nUi3LQODRrrPmQ_lGY-71" vertex="1">
          <mxGeometry y="60" width="180" height="30" as="geometry"/>
        </mxCell>
        <mxCell id="g-nUi3LQODRrrPmQ_lGY-76" value="FK" style="shape=partialRectangle;connectable=0;fillColor=none;top=0;left=0;bottom=0;right=0;fontStyle=0;overflow=hidden;whiteSpace=wrap;html=1;" parent="g-nUi3LQODRrrPmQ_lGY-75" vertex="1">
          <mxGeometry width="30" height="30" as="geometry">
            <mxRectangle width="30" height="30" as="alternateBounds"/>
          </mxGeometry>
        </mxCell>
        <mxCell id="g-nUi3LQODRrrPmQ_lGY-77" value="user_id" style="shape=partialRectangle;connectable=0;fillColor=none;top=0;left=0;bottom=0;right=0;align=left;spacingLeft=6;fontStyle=0;overflow=hidden;whiteSpace=wrap;html=1;" parent="g-nUi3LQODRrrPmQ_lGY-75" vertex="1">
          <mxGeometry x="30" width="150" height="30" as="geometry">
            <mxRectangle width="150" height="30" as="alternateBounds"/>
          </mxGeometry>
        </mxCell>
        <mxCell id="g-nUi3LQODRrrPmQ_lGY-85" value="" style="shape=tableRow;horizontal=0;startSize=0;swimlaneHead=0;swimlaneBody=0;fillColor=none;collapsible=0;dropTarget=0;points=[[0,0.5],[1,0.5]];portConstraint=eastwest;top=0;left=0;right=0;bottom=0;" parent="g-nUi3LQODRrrPmQ_lGY-71" vertex="1">
          <mxGeometry y="90" width="180" height="30" as="geometry"/>
        </mxCell>
        <mxCell id="g-nUi3LQODRrrPmQ_lGY-86" value="" style="shape=partialRectangle;connectable=0;fillColor=none;top=0;left=0;bottom=0;right=0;editable=1;overflow=hidden;" parent="g-nUi3LQODRrrPmQ_lGY-85" vertex="1">
          <mxGeometry width="30" height="30" as="geometry">
            <mxRectangle width="30" height="30" as="alternateBounds"/>
          </mxGeometry>
        </mxCell>
        <mxCell id="g-nUi3LQODRrrPmQ_lGY-87" value="tag" style="shape=partialRectangle;connectable=0;fillColor=none;top=0;left=0;bottom=0;right=0;align=left;spacingLeft=6;overflow=hidden;" parent="g-nUi3LQODRrrPmQ_lGY-85" vertex="1">
          <mxGeometry x="30" width="150" height="30" as="geometry">
            <mxRectangle width="150" height="30" as="alternateBounds"/>
          </mxGeometry>
        </mxCell>
        <mxCell id="g-nUi3LQODRrrPmQ_lGY-88" value="UrlsTable" style="shape=table;startSize=30;container=1;collapsible=1;childLayout=tableLayout;fixedRows=1;rowLines=0;fontStyle=1;align=center;resizeLast=1;html=1;" parent="1" vertex="1">
          <mxGeometry x="660" y="230" width="180" height="120" as="geometry"/>
        </mxCell>
        <mxCell id="g-nUi3LQODRrrPmQ_lGY-89" value="" style="shape=tableRow;horizontal=0;startSize=0;swimlaneHead=0;swimlaneBody=0;fillColor=none;collapsible=0;dropTarget=0;points=[[0,0.5],[1,0.5]];portConstraint=eastwest;top=0;left=0;right=0;bottom=1;" parent="g-nUi3LQODRrrPmQ_lGY-88" vertex="1">
          <mxGeometry y="30" width="180" height="30" as="geometry"/>
        </mxCell>
        <mxCell id="g-nUi3LQODRrrPmQ_lGY-90" value="PK" style="shape=partialRectangle;connectable=0;fillColor=none;top=0;left=0;bottom=0;right=0;fontStyle=1;overflow=hidden;whiteSpace=wrap;html=1;" parent="g-nUi3LQODRrrPmQ_lGY-89" vertex="1">
          <mxGeometry width="30" height="30" as="geometry">
            <mxRectangle width="30" height="30" as="alternateBounds"/>
          </mxGeometry>
        </mxCell>
        <mxCell id="g-nUi3LQODRrrPmQ_lGY-91" value="id" style="shape=partialRectangle;connectable=0;fillColor=none;top=0;left=0;bottom=0;right=0;align=left;spacingLeft=6;fontStyle=5;overflow=hidden;whiteSpace=wrap;html=1;" parent="g-nUi3LQODRrrPmQ_lGY-89" vertex="1">
          <mxGeometry x="30" width="150" height="30" as="geometry">
            <mxRectangle width="150" height="30" as="alternateBounds"/>
          </mxGeometry>
        </mxCell>
        <mxCell id="g-nUi3LQODRrrPmQ_lGY-92" value="" style="shape=tableRow;horizontal=0;startSize=0;swimlaneHead=0;swimlaneBody=0;fillColor=none;collapsible=0;dropTarget=0;points=[[0,0.5],[1,0.5]];portConstraint=eastwest;top=0;left=0;right=0;bottom=0;" parent="g-nUi3LQODRrrPmQ_lGY-88" vertex="1">
          <mxGeometry y="60" width="180" height="30" as="geometry"/>
        </mxCell>
        <mxCell id="g-nUi3LQODRrrPmQ_lGY-93" value="FK" style="shape=partialRectangle;connectable=0;fillColor=none;top=0;left=0;bottom=0;right=0;fontStyle=0;overflow=hidden;whiteSpace=wrap;html=1;" parent="g-nUi3LQODRrrPmQ_lGY-92" vertex="1">
          <mxGeometry width="30" height="30" as="geometry">
            <mxRectangle width="30" height="30" as="alternateBounds"/>
          </mxGeometry>
        </mxCell>
        <mxCell id="g-nUi3LQODRrrPmQ_lGY-94" value="snippet_id" style="shape=partialRectangle;connectable=0;fillColor=none;top=0;left=0;bottom=0;right=0;align=left;spacingLeft=6;fontStyle=0;overflow=hidden;whiteSpace=wrap;html=1;" parent="g-nUi3LQODRrrPmQ_lGY-92" vertex="1">
          <mxGeometry x="30" width="150" height="30" as="geometry">
            <mxRectangle width="150" height="30" as="alternateBounds"/>
          </mxGeometry>
        </mxCell>
        <mxCell id="g-nUi3LQODRrrPmQ_lGY-95" value="" style="shape=tableRow;horizontal=0;startSize=0;swimlaneHead=0;swimlaneBody=0;fillColor=none;collapsible=0;dropTarget=0;points=[[0,0.5],[1,0.5]];portConstraint=eastwest;top=0;left=0;right=0;bottom=0;" parent="g-nUi3LQODRrrPmQ_lGY-88" vertex="1">
          <mxGeometry y="90" width="180" height="30" as="geometry"/>
        </mxCell>
        <mxCell id="g-nUi3LQODRrrPmQ_lGY-96" value="" style="shape=partialRectangle;connectable=0;fillColor=none;top=0;left=0;bottom=0;right=0;editable=1;overflow=hidden;" parent="g-nUi3LQODRrrPmQ_lGY-95" vertex="1">
          <mxGeometry width="30" height="30" as="geometry">
            <mxRectangle width="30" height="30" as="alternateBounds"/>
          </mxGeometry>
        </mxCell>
        <mxCell id="g-nUi3LQODRrrPmQ_lGY-97" value="urls" style="shape=partialRectangle;connectable=0;fillColor=none;top=0;left=0;bottom=0;right=0;align=left;spacingLeft=6;overflow=hidden;" parent="g-nUi3LQODRrrPmQ_lGY-95" vertex="1">
          <mxGeometry x="30" width="150" height="30" as="geometry">
            <mxRectangle width="150" height="30" as="alternateBounds"/>
          </mxGeometry>
        </mxCell>
        <mxCell id="g-nUi3LQODRrrPmQ_lGY-101" value="UserTable" style="shape=table;startSize=30;container=1;collapsible=1;childLayout=tableLayout;fixedRows=1;rowLines=0;fontStyle=1;align=center;resizeLast=1;html=1;" parent="1" vertex="1">
          <mxGeometry x="-130" y="240" width="180" height="180" as="geometry"/>
        </mxCell>
        <mxCell id="g-nUi3LQODRrrPmQ_lGY-102" value="" style="shape=tableRow;horizontal=0;startSize=0;swimlaneHead=0;swimlaneBody=0;fillColor=none;collapsible=0;dropTarget=0;points=[[0,0.5],[1,0.5]];portConstraint=eastwest;top=0;left=0;right=0;bottom=1;" parent="g-nUi3LQODRrrPmQ_lGY-101" vertex="1">
          <mxGeometry y="30" width="180" height="30" as="geometry"/>
        </mxCell>
        <mxCell id="g-nUi3LQODRrrPmQ_lGY-103" value="PK" style="shape=partialRectangle;connectable=0;fillColor=none;top=0;left=0;bottom=0;right=0;fontStyle=1;overflow=hidden;whiteSpace=wrap;html=1;" parent="g-nUi3LQODRrrPmQ_lGY-102" vertex="1">
          <mxGeometry width="30" height="30" as="geometry">
            <mxRectangle width="30" height="30" as="alternateBounds"/>
          </mxGeometry>
        </mxCell>
        <mxCell id="g-nUi3LQODRrrPmQ_lGY-104" value="id" style="shape=partialRectangle;connectable=0;fillColor=none;top=0;left=0;bottom=0;right=0;align=left;spacingLeft=6;fontStyle=5;overflow=hidden;whiteSpace=wrap;html=1;" parent="g-nUi3LQODRrrPmQ_lGY-102" vertex="1">
          <mxGeometry x="30" width="150" height="30" as="geometry">
            <mxRectangle width="150" height="30" as="alternateBounds"/>
          </mxGeometry>
        </mxCell>
        <mxCell id="g-nUi3LQODRrrPmQ_lGY-105" value="" style="shape=tableRow;horizontal=0;startSize=0;swimlaneHead=0;swimlaneBody=0;fillColor=none;collapsible=0;dropTarget=0;points=[[0,0.5],[1,0.5]];portConstraint=eastwest;top=0;left=0;right=0;bottom=0;" parent="g-nUi3LQODRrrPmQ_lGY-101" vertex="1">
          <mxGeometry y="60" width="180" height="30" as="geometry"/>
        </mxCell>
        <mxCell id="g-nUi3LQODRrrPmQ_lGY-106" value="" style="shape=partialRectangle;connectable=0;fillColor=none;top=0;left=0;bottom=0;right=0;editable=1;overflow=hidden;whiteSpace=wrap;html=1;" parent="g-nUi3LQODRrrPmQ_lGY-105" vertex="1">
          <mxGeometry width="30" height="30" as="geometry">
            <mxRectangle width="30" height="30" as="alternateBounds"/>
          </mxGeometry>
        </mxCell>
        <mxCell id="g-nUi3LQODRrrPmQ_lGY-107" value="is_system_admin" style="shape=partialRectangle;connectable=0;fillColor=none;top=0;left=0;bottom=0;right=0;align=left;spacingLeft=6;overflow=hidden;whiteSpace=wrap;html=1;" parent="g-nUi3LQODRrrPmQ_lGY-105" vertex="1">
          <mxGeometry x="30" width="150" height="30" as="geometry">
            <mxRectangle width="150" height="30" as="alternateBounds"/>
          </mxGeometry>
        </mxCell>
        <mxCell id="XDHNgutZpygj9ZUOvYdA-1" value="" style="shape=tableRow;horizontal=0;startSize=0;swimlaneHead=0;swimlaneBody=0;fillColor=none;collapsible=0;dropTarget=0;points=[[0,0.5],[1,0.5]];portConstraint=eastwest;top=0;left=0;right=0;bottom=0;" parent="g-nUi3LQODRrrPmQ_lGY-101" vertex="1">
          <mxGeometry y="90" width="180" height="30" as="geometry"/>
        </mxCell>
        <mxCell id="XDHNgutZpygj9ZUOvYdA-2" value="" style="shape=partialRectangle;connectable=0;fillColor=none;top=0;left=0;bottom=0;right=0;editable=1;overflow=hidden;" parent="XDHNgutZpygj9ZUOvYdA-1" vertex="1">
          <mxGeometry width="30" height="30" as="geometry">
            <mxRectangle width="30" height="30" as="alternateBounds"/>
          </mxGeometry>
        </mxCell>
        <mxCell id="XDHNgutZpygj9ZUOvYdA-3" value="is_pro" style="shape=partialRectangle;connectable=0;fillColor=none;top=0;left=0;bottom=0;right=0;align=left;spacingLeft=6;overflow=hidden;" parent="XDHNgutZpygj9ZUOvYdA-1" vertex="1">
          <mxGeometry x="30" width="150" height="30" as="geometry">
            <mxRectangle width="150" height="30" as="alternateBounds"/>
          </mxGeometry>
        </mxCell>
        <mxCell id="g-nUi3LQODRrrPmQ_lGY-108" value="" style="shape=tableRow;horizontal=0;startSize=0;swimlaneHead=0;swimlaneBody=0;fillColor=none;collapsible=0;dropTarget=0;points=[[0,0.5],[1,0.5]];portConstraint=eastwest;top=0;left=0;right=0;bottom=0;" parent="g-nUi3LQODRrrPmQ_lGY-101" vertex="1">
          <mxGeometry y="120" width="180" height="30" as="geometry"/>
        </mxCell>
        <mxCell id="g-nUi3LQODRrrPmQ_lGY-109" value="" style="shape=partialRectangle;connectable=0;fillColor=none;top=0;left=0;bottom=0;right=0;editable=1;overflow=hidden;whiteSpace=wrap;html=1;" parent="g-nUi3LQODRrrPmQ_lGY-108" vertex="1">
          <mxGeometry width="30" height="30" as="geometry">
            <mxRectangle width="30" height="30" as="alternateBounds"/>
          </mxGeometry>
        </mxCell>
        <mxCell id="g-nUi3LQODRrrPmQ_lGY-110" value="email" style="shape=partialRectangle;connectable=0;fillColor=none;top=0;left=0;bottom=0;right=0;align=left;spacingLeft=6;overflow=hidden;whiteSpace=wrap;html=1;" parent="g-nUi3LQODRrrPmQ_lGY-108" vertex="1">
          <mxGeometry x="30" width="150" height="30" as="geometry">
            <mxRectangle width="150" height="30" as="alternateBounds"/>
          </mxGeometry>
        </mxCell>
        <mxCell id="g-nUi3LQODRrrPmQ_lGY-114" value="" style="shape=tableRow;horizontal=0;startSize=0;swimlaneHead=0;swimlaneBody=0;fillColor=none;collapsible=0;dropTarget=0;points=[[0,0.5],[1,0.5]];portConstraint=eastwest;top=0;left=0;right=0;bottom=0;" parent="g-nUi3LQODRrrPmQ_lGY-101" vertex="1">
          <mxGeometry y="150" width="180" height="30" as="geometry"/>
        </mxCell>
        <mxCell id="g-nUi3LQODRrrPmQ_lGY-115" value="" style="shape=partialRectangle;connectable=0;fillColor=none;top=0;left=0;bottom=0;right=0;editable=1;overflow=hidden;" parent="g-nUi3LQODRrrPmQ_lGY-114" vertex="1">
          <mxGeometry width="30" height="30" as="geometry">
            <mxRectangle width="30" height="30" as="alternateBounds"/>
          </mxGeometry>
        </mxCell>
        <mxCell id="g-nUi3LQODRrrPmQ_lGY-116" value="password" style="shape=partialRectangle;connectable=0;fillColor=none;top=0;left=0;bottom=0;right=0;align=left;spacingLeft=6;overflow=hidden;" parent="g-nUi3LQODRrrPmQ_lGY-114" vertex="1">
          <mxGeometry x="30" width="150" height="30" as="geometry">
            <mxRectangle width="150" height="30" as="alternateBounds"/>
          </mxGeometry>
        </mxCell>
        <mxCell id="g-nUi3LQODRrrPmQ_lGY-125" value="SystemTable" style="shape=table;startSize=30;container=1;collapsible=1;childLayout=tableLayout;fixedRows=1;rowLines=0;fontStyle=1;align=center;resizeLast=1;html=1;" parent="1" vertex="1">
          <mxGeometry x="-540" y="740" width="220" height="120" as="geometry"/>
        </mxCell>
        <mxCell id="g-nUi3LQODRrrPmQ_lGY-126" value="" style="shape=tableRow;horizontal=0;startSize=0;swimlaneHead=0;swimlaneBody=0;fillColor=none;collapsible=0;dropTarget=0;points=[[0,0.5],[1,0.5]];portConstraint=eastwest;top=0;left=0;right=0;bottom=1;" parent="g-nUi3LQODRrrPmQ_lGY-125" vertex="1">
          <mxGeometry y="30" width="220" height="30" as="geometry"/>
        </mxCell>
        <mxCell id="g-nUi3LQODRrrPmQ_lGY-127" value="PK" style="shape=partialRectangle;connectable=0;fillColor=none;top=0;left=0;bottom=0;right=0;fontStyle=1;overflow=hidden;whiteSpace=wrap;html=1;" parent="g-nUi3LQODRrrPmQ_lGY-126" vertex="1">
          <mxGeometry width="30" height="30" as="geometry">
            <mxRectangle width="30" height="30" as="alternateBounds"/>
          </mxGeometry>
        </mxCell>
        <mxCell id="g-nUi3LQODRrrPmQ_lGY-128" value="id" style="shape=partialRectangle;connectable=0;fillColor=none;top=0;left=0;bottom=0;right=0;align=left;spacingLeft=6;fontStyle=5;overflow=hidden;whiteSpace=wrap;html=1;" parent="g-nUi3LQODRrrPmQ_lGY-126" vertex="1">
          <mxGeometry x="30" width="190" height="30" as="geometry">
            <mxRectangle width="190" height="30" as="alternateBounds"/>
          </mxGeometry>
        </mxCell>
        <mxCell id="g-nUi3LQODRrrPmQ_lGY-129" value="" style="shape=tableRow;horizontal=0;startSize=0;swimlaneHead=0;swimlaneBody=0;fillColor=none;collapsible=0;dropTarget=0;points=[[0,0.5],[1,0.5]];portConstraint=eastwest;top=0;left=0;right=0;bottom=0;" parent="g-nUi3LQODRrrPmQ_lGY-125" vertex="1">
          <mxGeometry y="60" width="220" height="30" as="geometry"/>
        </mxCell>
        <mxCell id="g-nUi3LQODRrrPmQ_lGY-130" value="" style="shape=partialRectangle;connectable=0;fillColor=none;top=0;left=0;bottom=0;right=0;editable=1;overflow=hidden;whiteSpace=wrap;html=1;" parent="g-nUi3LQODRrrPmQ_lGY-129" vertex="1">
          <mxGeometry width="30" height="30" as="geometry">
            <mxRectangle width="30" height="30" as="alternateBounds"/>
          </mxGeometry>
        </mxCell>
        <mxCell id="g-nUi3LQODRrrPmQ_lGY-131" value="language_color_code" style="shape=partialRectangle;connectable=0;fillColor=none;top=0;left=0;bottom=0;right=0;align=left;spacingLeft=6;overflow=hidden;whiteSpace=wrap;html=1;" parent="g-nUi3LQODRrrPmQ_lGY-129" vertex="1">
          <mxGeometry x="30" width="190" height="30" as="geometry">
            <mxRectangle width="190" height="30" as="alternateBounds"/>
          </mxGeometry>
        </mxCell>
        <mxCell id="g-nUi3LQODRrrPmQ_lGY-132" value="" style="shape=tableRow;horizontal=0;startSize=0;swimlaneHead=0;swimlaneBody=0;fillColor=none;collapsible=0;dropTarget=0;points=[[0,0.5],[1,0.5]];portConstraint=eastwest;top=0;left=0;right=0;bottom=0;" parent="g-nUi3LQODRrrPmQ_lGY-125" vertex="1">
          <mxGeometry y="90" width="220" height="30" as="geometry"/>
        </mxCell>
        <mxCell id="g-nUi3LQODRrrPmQ_lGY-133" value="" style="shape=partialRectangle;connectable=0;fillColor=none;top=0;left=0;bottom=0;right=0;editable=1;overflow=hidden;whiteSpace=wrap;html=1;" parent="g-nUi3LQODRrrPmQ_lGY-132" vertex="1">
          <mxGeometry width="30" height="30" as="geometry">
            <mxRectangle width="30" height="30" as="alternateBounds"/>
          </mxGeometry>
        </mxCell>
        <mxCell id="g-nUi3LQODRrrPmQ_lGY-134" value="shared_status_color_code" style="shape=partialRectangle;connectable=0;fillColor=none;top=0;left=0;bottom=0;right=0;align=left;spacingLeft=6;overflow=hidden;whiteSpace=wrap;html=1;" parent="g-nUi3LQODRrrPmQ_lGY-132" vertex="1">
          <mxGeometry x="30" width="190" height="30" as="geometry">
            <mxRectangle width="190" height="30" as="alternateBounds"/>
          </mxGeometry>
        </mxCell>
        <mxCell id="g-nUi3LQODRrrPmQ_lGY-138" value="GroupTable" style="shape=table;startSize=30;container=1;collapsible=1;childLayout=tableLayout;fixedRows=1;rowLines=0;fontStyle=1;align=center;resizeLast=1;html=1;" parent="1" vertex="1">
          <mxGeometry x="-520" y="110" width="180" height="120" as="geometry"/>
        </mxCell>
        <mxCell id="g-nUi3LQODRrrPmQ_lGY-139" value="" style="shape=tableRow;horizontal=0;startSize=0;swimlaneHead=0;swimlaneBody=0;fillColor=none;collapsible=0;dropTarget=0;points=[[0,0.5],[1,0.5]];portConstraint=eastwest;top=0;left=0;right=0;bottom=1;" parent="g-nUi3LQODRrrPmQ_lGY-138" vertex="1">
          <mxGeometry y="30" width="180" height="30" as="geometry"/>
        </mxCell>
        <mxCell id="g-nUi3LQODRrrPmQ_lGY-140" value="PK" style="shape=partialRectangle;connectable=0;fillColor=none;top=0;left=0;bottom=0;right=0;fontStyle=1;overflow=hidden;whiteSpace=wrap;html=1;" parent="g-nUi3LQODRrrPmQ_lGY-139" vertex="1">
          <mxGeometry width="30" height="30" as="geometry">
            <mxRectangle width="30" height="30" as="alternateBounds"/>
          </mxGeometry>
        </mxCell>
        <mxCell id="g-nUi3LQODRrrPmQ_lGY-141" value="id" style="shape=partialRectangle;connectable=0;fillColor=none;top=0;left=0;bottom=0;right=0;align=left;spacingLeft=6;fontStyle=5;overflow=hidden;whiteSpace=wrap;html=1;" parent="g-nUi3LQODRrrPmQ_lGY-139" vertex="1">
          <mxGeometry x="30" width="150" height="30" as="geometry">
            <mxRectangle width="150" height="30" as="alternateBounds"/>
          </mxGeometry>
        </mxCell>
        <mxCell id="g-nUi3LQODRrrPmQ_lGY-163" value="" style="shape=tableRow;horizontal=0;startSize=0;swimlaneHead=0;swimlaneBody=0;fillColor=none;collapsible=0;dropTarget=0;points=[[0,0.5],[1,0.5]];portConstraint=eastwest;top=0;left=0;right=0;bottom=0;" parent="g-nUi3LQODRrrPmQ_lGY-138" vertex="1">
          <mxGeometry y="60" width="180" height="30" as="geometry"/>
        </mxCell>
        <mxCell id="g-nUi3LQODRrrPmQ_lGY-164" value="FK" style="shape=partialRectangle;connectable=0;fillColor=none;top=0;left=0;bottom=0;right=0;fontStyle=0;overflow=hidden;whiteSpace=wrap;html=1;" parent="g-nUi3LQODRrrPmQ_lGY-163" vertex="1">
          <mxGeometry width="30" height="30" as="geometry">
            <mxRectangle width="30" height="30" as="alternateBounds"/>
          </mxGeometry>
        </mxCell>
        <mxCell id="g-nUi3LQODRrrPmQ_lGY-165" value="group_creator_id" style="shape=partialRectangle;connectable=0;fillColor=none;top=0;left=0;bottom=0;right=0;align=left;spacingLeft=6;fontStyle=0;overflow=hidden;whiteSpace=wrap;html=1;" parent="g-nUi3LQODRrrPmQ_lGY-163" vertex="1">
          <mxGeometry x="30" width="150" height="30" as="geometry">
            <mxRectangle width="150" height="30" as="alternateBounds"/>
          </mxGeometry>
        </mxCell>
        <mxCell id="g-nUi3LQODRrrPmQ_lGY-145" value="" style="shape=tableRow;horizontal=0;startSize=0;swimlaneHead=0;swimlaneBody=0;fillColor=none;collapsible=0;dropTarget=0;points=[[0,0.5],[1,0.5]];portConstraint=eastwest;top=0;left=0;right=0;bottom=0;" parent="g-nUi3LQODRrrPmQ_lGY-138" vertex="1">
          <mxGeometry y="90" width="180" height="30" as="geometry"/>
        </mxCell>
        <mxCell id="g-nUi3LQODRrrPmQ_lGY-146" value="" style="shape=partialRectangle;connectable=0;fillColor=none;top=0;left=0;bottom=0;right=0;fontStyle=0;overflow=hidden;whiteSpace=wrap;html=1;" parent="g-nUi3LQODRrrPmQ_lGY-145" vertex="1">
          <mxGeometry width="30" height="30" as="geometry">
            <mxRectangle width="30" height="30" as="alternateBounds"/>
          </mxGeometry>
        </mxCell>
        <mxCell id="g-nUi3LQODRrrPmQ_lGY-147" value="group_name" style="shape=partialRectangle;connectable=0;fillColor=none;top=0;left=0;bottom=0;right=0;align=left;spacingLeft=6;fontStyle=0;overflow=hidden;whiteSpace=wrap;html=1;" parent="g-nUi3LQODRrrPmQ_lGY-145" vertex="1">
          <mxGeometry x="30" width="150" height="30" as="geometry">
            <mxRectangle width="150" height="30" as="alternateBounds"/>
          </mxGeometry>
        </mxCell>
        <mxCell id="g-nUi3LQODRrrPmQ_lGY-151" value="GroupMemberTable" style="shape=table;startSize=30;container=1;collapsible=1;childLayout=tableLayout;fixedRows=1;rowLines=0;fontStyle=1;align=center;resizeLast=1;html=1;" parent="1" vertex="1">
          <mxGeometry x="-800" y="300" width="180" height="120" as="geometry"/>
        </mxCell>
        <mxCell id="g-nUi3LQODRrrPmQ_lGY-152" value="" style="shape=tableRow;horizontal=0;startSize=0;swimlaneHead=0;swimlaneBody=0;fillColor=none;collapsible=0;dropTarget=0;points=[[0,0.5],[1,0.5]];portConstraint=eastwest;top=0;left=0;right=0;bottom=1;" parent="g-nUi3LQODRrrPmQ_lGY-151" vertex="1">
          <mxGeometry y="30" width="180" height="30" as="geometry"/>
        </mxCell>
        <mxCell id="g-nUi3LQODRrrPmQ_lGY-153" value="PK" style="shape=partialRectangle;connectable=0;fillColor=none;top=0;left=0;bottom=0;right=0;fontStyle=1;overflow=hidden;whiteSpace=wrap;html=1;" parent="g-nUi3LQODRrrPmQ_lGY-152" vertex="1">
          <mxGeometry width="30" height="30" as="geometry">
            <mxRectangle width="30" height="30" as="alternateBounds"/>
          </mxGeometry>
        </mxCell>
        <mxCell id="g-nUi3LQODRrrPmQ_lGY-154" value="id" style="shape=partialRectangle;connectable=0;fillColor=none;top=0;left=0;bottom=0;right=0;align=left;spacingLeft=6;fontStyle=5;overflow=hidden;whiteSpace=wrap;html=1;" parent="g-nUi3LQODRrrPmQ_lGY-152" vertex="1">
          <mxGeometry x="30" width="150" height="30" as="geometry">
            <mxRectangle width="150" height="30" as="alternateBounds"/>
          </mxGeometry>
        </mxCell>
        <mxCell id="g-nUi3LQODRrrPmQ_lGY-155" value="" style="shape=tableRow;horizontal=0;startSize=0;swimlaneHead=0;swimlaneBody=0;fillColor=none;collapsible=0;dropTarget=0;points=[[0,0.5],[1,0.5]];portConstraint=eastwest;top=0;left=0;right=0;bottom=0;" parent="g-nUi3LQODRrrPmQ_lGY-151" vertex="1">
          <mxGeometry y="60" width="180" height="30" as="geometry"/>
        </mxCell>
        <mxCell id="g-nUi3LQODRrrPmQ_lGY-156" value="FK" style="shape=partialRectangle;connectable=0;fillColor=none;top=0;left=0;bottom=0;right=0;fontStyle=0;overflow=hidden;whiteSpace=wrap;html=1;" parent="g-nUi3LQODRrrPmQ_lGY-155" vertex="1">
          <mxGeometry width="30" height="30" as="geometry">
            <mxRectangle width="30" height="30" as="alternateBounds"/>
          </mxGeometry>
        </mxCell>
        <mxCell id="g-nUi3LQODRrrPmQ_lGY-157" value="group_id" style="shape=partialRectangle;connectable=0;fillColor=none;top=0;left=0;bottom=0;right=0;align=left;spacingLeft=6;fontStyle=0;overflow=hidden;whiteSpace=wrap;html=1;" parent="g-nUi3LQODRrrPmQ_lGY-155" vertex="1">
          <mxGeometry x="30" width="150" height="30" as="geometry">
            <mxRectangle width="150" height="30" as="alternateBounds"/>
          </mxGeometry>
        </mxCell>
        <mxCell id="g-nUi3LQODRrrPmQ_lGY-192" value="" style="shape=tableRow;horizontal=0;startSize=0;swimlaneHead=0;swimlaneBody=0;fillColor=none;collapsible=0;dropTarget=0;points=[[0,0.5],[1,0.5]];portConstraint=eastwest;top=0;left=0;right=0;bottom=0;" parent="g-nUi3LQODRrrPmQ_lGY-151" vertex="1">
          <mxGeometry y="90" width="180" height="30" as="geometry"/>
        </mxCell>
        <mxCell id="g-nUi3LQODRrrPmQ_lGY-193" value="FK" style="shape=partialRectangle;connectable=0;fillColor=none;top=0;left=0;bottom=0;right=0;fontStyle=0;overflow=hidden;whiteSpace=wrap;html=1;" parent="g-nUi3LQODRrrPmQ_lGY-192" vertex="1">
          <mxGeometry width="30" height="30" as="geometry">
            <mxRectangle width="30" height="30" as="alternateBounds"/>
          </mxGeometry>
        </mxCell>
        <mxCell id="g-nUi3LQODRrrPmQ_lGY-194" value="member_id" style="shape=partialRectangle;connectable=0;fillColor=none;top=0;left=0;bottom=0;right=0;align=left;spacingLeft=6;fontStyle=0;overflow=hidden;whiteSpace=wrap;html=1;" parent="g-nUi3LQODRrrPmQ_lGY-192" vertex="1">
          <mxGeometry x="30" width="150" height="30" as="geometry">
            <mxRectangle width="150" height="30" as="alternateBounds"/>
          </mxGeometry>
        </mxCell>
        <mxCell id="g-nUi3LQODRrrPmQ_lGY-172" value="" style="edgeStyle=entityRelationEdgeStyle;fontSize=12;html=1;endArrow=ERmandOne;startArrow=ERmandOne;rounded=0;exitX=1.004;exitY=0.731;exitDx=0;exitDy=0;entryX=0;entryY=0.5;entryDx=0;entryDy=0;exitPerimeter=0;" parent="1" source="g-nUi3LQODRrrPmQ_lGY-102" target="g-nUi3LQODRrrPmQ_lGY-120" edge="1">
          <mxGeometry width="100" height="100" relative="1" as="geometry">
            <mxPoint x="100" y="265" as="sourcePoint"/>
            <mxPoint x="320" y="365" as="targetPoint"/>
          </mxGeometry>
        </mxCell>
        <mxCell id="g-nUi3LQODRrrPmQ_lGY-173" value="" style="edgeStyle=entityRelationEdgeStyle;fontSize=12;html=1;endArrow=ERmandOne;startArrow=ERmandOne;rounded=0;exitX=1;exitY=0.3;exitDx=0;exitDy=0;entryX=0;entryY=0.5;entryDx=0;entryDy=0;exitPerimeter=0;" parent="1" source="g-nUi3LQODRrrPmQ_lGY-22" target="g-nUi3LQODRrrPmQ_lGY-29" edge="1">
          <mxGeometry width="100" height="100" relative="1" as="geometry">
            <mxPoint x="470" y="410" as="sourcePoint"/>
            <mxPoint x="680" y="460" as="targetPoint"/>
          </mxGeometry>
        </mxCell>
        <mxCell id="g-nUi3LQODRrrPmQ_lGY-185" value="" style="edgeStyle=entityRelationEdgeStyle;fontSize=12;html=1;endArrow=ERmany;startArrow=ERmany;rounded=0;entryX=0.002;entryY=0.755;entryDx=0;entryDy=0;entryPerimeter=0;exitX=0.996;exitY=0.415;exitDx=0;exitDy=0;exitPerimeter=0;" parent="1" source="g-nUi3LQODRrrPmQ_lGY-192" target="g-nUi3LQODRrrPmQ_lGY-102" edge="1">
          <mxGeometry width="100" height="100" relative="1" as="geometry">
            <mxPoint x="-480" y="380" as="sourcePoint"/>
            <mxPoint x="-320" y="350" as="targetPoint"/>
            <Array as="points">
              <mxPoint x="-140" y="300"/>
            </Array>
          </mxGeometry>
        </mxCell>
        <mxCell id="g-nUi3LQODRrrPmQ_lGY-174" value="" style="edgeStyle=entityRelationEdgeStyle;fontSize=12;html=1;endArrow=ERoneToMany;rounded=0;entryX=1;entryY=0.5;entryDx=0;entryDy=0;exitX=-0.002;exitY=0.279;exitDx=0;exitDy=0;exitPerimeter=0;" parent="1" source="g-nUi3LQODRrrPmQ_lGY-102" target="g-nUi3LQODRrrPmQ_lGY-163" edge="1">
          <mxGeometry width="100" height="100" relative="1" as="geometry">
            <mxPoint x="-310" y="360" as="sourcePoint"/>
            <mxPoint x="-210" y="260" as="targetPoint"/>
          </mxGeometry>
        </mxCell>
        <mxCell id="g-nUi3LQODRrrPmQ_lGY-179" value="" style="edgeStyle=entityRelationEdgeStyle;fontSize=12;html=1;endArrow=ERoneToMany;rounded=0;exitX=0;exitY=0.5;exitDx=0;exitDy=0;" parent="1" source="g-nUi3LQODRrrPmQ_lGY-139" target="g-nUi3LQODRrrPmQ_lGY-155" edge="1">
          <mxGeometry width="100" height="100" relative="1" as="geometry">
            <mxPoint x="-650" y="230" as="sourcePoint"/>
            <mxPoint x="-530" y="420" as="targetPoint"/>
            <Array as="points">
              <mxPoint x="-650" y="270"/>
              <mxPoint x="-660" y="140"/>
            </Array>
          </mxGeometry>
        </mxCell>
        <mxCell id="g-nUi3LQODRrrPmQ_lGY-188" value="" style="edgeStyle=entityRelationEdgeStyle;fontSize=12;html=1;endArrow=ERoneToMany;rounded=0;entryX=0;entryY=0.5;entryDx=0;entryDy=0;exitX=0.996;exitY=0.231;exitDx=0;exitDy=0;exitPerimeter=0;" parent="1" source="g-nUi3LQODRrrPmQ_lGY-102" target="g-nUi3LQODRrrPmQ_lGY-75" edge="1">
          <mxGeometry width="100" height="100" relative="1" as="geometry">
            <mxPoint x="180" y="140" as="sourcePoint"/>
            <mxPoint x="-30" y="40" as="targetPoint"/>
            <Array as="points">
              <mxPoint x="70" y="290"/>
            </Array>
          </mxGeometry>
        </mxCell>
        <mxCell id="g-nUi3LQODRrrPmQ_lGY-189" value="" style="edgeStyle=entityRelationEdgeStyle;fontSize=12;html=1;endArrow=ERoneToMany;rounded=0;entryX=0;entryY=0.5;entryDx=0;entryDy=0;exitX=1;exitY=0.5;exitDx=0;exitDy=0;" parent="1" source="g-nUi3LQODRrrPmQ_lGY-10" target="g-nUi3LQODRrrPmQ_lGY-92" edge="1">
          <mxGeometry width="100" height="100" relative="1" as="geometry">
            <mxPoint x="445" y="470" as="sourcePoint"/>
            <mxPoint x="655" y="280" as="targetPoint"/>
          </mxGeometry>
        </mxCell>
        <mxCell id="g-nUi3LQODRrrPmQ_lGY-190" value="" style="edgeStyle=entityRelationEdgeStyle;fontSize=12;html=1;endArrow=ERmany;startArrow=ERmany;rounded=0;entryX=0;entryY=0.5;entryDx=0;entryDy=0;exitX=0.992;exitY=0.219;exitDx=0;exitDy=0;exitPerimeter=0;" parent="1" source="g-nUi3LQODRrrPmQ_lGY-10" target="g-nUi3LQODRrrPmQ_lGY-58" edge="1">
          <mxGeometry width="100" height="100" relative="1" as="geometry">
            <mxPoint x="500" y="350" as="sourcePoint"/>
            <mxPoint x="600" y="250" as="targetPoint"/>
          </mxGeometry>
        </mxCell>
        <mxCell id="g-nUi3LQODRrrPmQ_lGY-191" value="" style="edgeStyle=entityRelationEdgeStyle;fontSize=12;html=1;endArrow=ERmany;startArrow=ERmany;rounded=0;entryX=0;entryY=0.5;entryDx=0;entryDy=0;exitX=1;exitY=0.5;exitDx=0;exitDy=0;" parent="1" source="g-nUi3LQODRrrPmQ_lGY-72" target="g-nUi3LQODRrrPmQ_lGY-68" edge="1">
          <mxGeometry width="100" height="100" relative="1" as="geometry">
            <mxPoint x="410" y="201" as="sourcePoint"/>
            <mxPoint x="631" y="99" as="targetPoint"/>
          </mxGeometry>
        </mxCell>
        <mxCell id="g-nUi3LQODRrrPmQ_lGY-195" value="SharedSnippetTable" style="shape=table;startSize=30;container=1;collapsible=1;childLayout=tableLayout;fixedRows=1;rowLines=0;fontStyle=1;align=center;resizeLast=1;html=1;" parent="1" vertex="1">
          <mxGeometry x="-150" y="550" width="220" height="150" as="geometry"/>
        </mxCell>
        <mxCell id="g-nUi3LQODRrrPmQ_lGY-196" value="" style="shape=tableRow;horizontal=0;startSize=0;swimlaneHead=0;swimlaneBody=0;fillColor=none;collapsible=0;dropTarget=0;points=[[0,0.5],[1,0.5]];portConstraint=eastwest;top=0;left=0;right=0;bottom=1;" parent="g-nUi3LQODRrrPmQ_lGY-195" vertex="1">
          <mxGeometry y="30" width="220" height="30" as="geometry"/>
        </mxCell>
        <mxCell id="g-nUi3LQODRrrPmQ_lGY-197" value="PK" style="shape=partialRectangle;connectable=0;fillColor=none;top=0;left=0;bottom=0;right=0;fontStyle=1;overflow=hidden;whiteSpace=wrap;html=1;" parent="g-nUi3LQODRrrPmQ_lGY-196" vertex="1">
          <mxGeometry width="30" height="30" as="geometry">
            <mxRectangle width="30" height="30" as="alternateBounds"/>
          </mxGeometry>
        </mxCell>
        <mxCell id="g-nUi3LQODRrrPmQ_lGY-198" value="id" style="shape=partialRectangle;connectable=0;fillColor=none;top=0;left=0;bottom=0;right=0;align=left;spacingLeft=6;fontStyle=5;overflow=hidden;whiteSpace=wrap;html=1;" parent="g-nUi3LQODRrrPmQ_lGY-196" vertex="1">
          <mxGeometry x="30" width="190" height="30" as="geometry">
            <mxRectangle width="190" height="30" as="alternateBounds"/>
          </mxGeometry>
        </mxCell>
        <mxCell id="g-nUi3LQODRrrPmQ_lGY-208" value="" style="shape=tableRow;horizontal=0;startSize=0;swimlaneHead=0;swimlaneBody=0;fillColor=none;collapsible=0;dropTarget=0;points=[[0,0.5],[1,0.5]];portConstraint=eastwest;top=0;left=0;right=0;bottom=0;" parent="g-nUi3LQODRrrPmQ_lGY-195" vertex="1">
          <mxGeometry y="60" width="220" height="30" as="geometry"/>
        </mxCell>
        <mxCell id="g-nUi3LQODRrrPmQ_lGY-209" value="FK" style="shape=partialRectangle;connectable=0;fillColor=none;top=0;left=0;bottom=0;right=0;fontStyle=0;overflow=hidden;whiteSpace=wrap;html=1;" parent="g-nUi3LQODRrrPmQ_lGY-208" vertex="1">
          <mxGeometry width="30" height="30" as="geometry">
            <mxRectangle width="30" height="30" as="alternateBounds"/>
          </mxGeometry>
        </mxCell>
        <mxCell id="g-nUi3LQODRrrPmQ_lGY-210" value="snippet_id" style="shape=partialRectangle;connectable=0;fillColor=none;top=0;left=0;bottom=0;right=0;align=left;spacingLeft=6;fontStyle=0;overflow=hidden;whiteSpace=wrap;html=1;" parent="g-nUi3LQODRrrPmQ_lGY-208" vertex="1">
          <mxGeometry x="30" width="190" height="30" as="geometry">
            <mxRectangle width="190" height="30" as="alternateBounds"/>
          </mxGeometry>
        </mxCell>
        <mxCell id="g-nUi3LQODRrrPmQ_lGY-211" value="" style="shape=tableRow;horizontal=0;startSize=0;swimlaneHead=0;swimlaneBody=0;fillColor=none;collapsible=0;dropTarget=0;points=[[0,0.5],[1,0.5]];portConstraint=eastwest;top=0;left=0;right=0;bottom=0;" parent="g-nUi3LQODRrrPmQ_lGY-195" vertex="1">
          <mxGeometry y="90" width="220" height="30" as="geometry"/>
        </mxCell>
        <mxCell id="g-nUi3LQODRrrPmQ_lGY-212" value="FK" style="shape=partialRectangle;connectable=0;fillColor=none;top=0;left=0;bottom=0;right=0;fontStyle=0;overflow=hidden;whiteSpace=wrap;html=1;" parent="g-nUi3LQODRrrPmQ_lGY-211" vertex="1">
          <mxGeometry width="30" height="30" as="geometry">
            <mxRectangle width="30" height="30" as="alternateBounds"/>
          </mxGeometry>
        </mxCell>
        <mxCell id="g-nUi3LQODRrrPmQ_lGY-213" value="group_id" style="shape=partialRectangle;connectable=0;fillColor=none;top=0;left=0;bottom=0;right=0;align=left;spacingLeft=6;fontStyle=0;overflow=hidden;whiteSpace=wrap;html=1;" parent="g-nUi3LQODRrrPmQ_lGY-211" vertex="1">
          <mxGeometry x="30" width="190" height="30" as="geometry">
            <mxRectangle width="190" height="30" as="alternateBounds"/>
          </mxGeometry>
        </mxCell>
        <mxCell id="g-nUi3LQODRrrPmQ_lGY-214" value="" style="shape=tableRow;horizontal=0;startSize=0;swimlaneHead=0;swimlaneBody=0;fillColor=none;collapsible=0;dropTarget=0;points=[[0,0.5],[1,0.5]];portConstraint=eastwest;top=0;left=0;right=0;bottom=0;" parent="g-nUi3LQODRrrPmQ_lGY-195" vertex="1">
          <mxGeometry y="120" width="220" height="30" as="geometry"/>
        </mxCell>
        <mxCell id="g-nUi3LQODRrrPmQ_lGY-215" value="" style="shape=partialRectangle;connectable=0;fillColor=none;top=0;left=0;bottom=0;right=0;editable=1;overflow=hidden;" parent="g-nUi3LQODRrrPmQ_lGY-214" vertex="1">
          <mxGeometry width="30" height="30" as="geometry">
            <mxRectangle width="30" height="30" as="alternateBounds"/>
          </mxGeometry>
        </mxCell>
        <mxCell id="g-nUi3LQODRrrPmQ_lGY-216" value="validity" style="shape=partialRectangle;connectable=0;fillColor=none;top=0;left=0;bottom=0;right=0;align=left;spacingLeft=6;overflow=hidden;" parent="g-nUi3LQODRrrPmQ_lGY-214" vertex="1">
          <mxGeometry x="30" width="190" height="30" as="geometry">
            <mxRectangle width="190" height="30" as="alternateBounds"/>
          </mxGeometry>
        </mxCell>
        <mxCell id="g-nUi3LQODRrrPmQ_lGY-217" value="" style="edgeStyle=entityRelationEdgeStyle;fontSize=12;html=1;endArrow=ERmany;startArrow=ERmany;rounded=0;exitX=0.999;exitY=0.639;exitDx=0;exitDy=0;exitPerimeter=0;entryX=0.011;entryY=0.366;entryDx=0;entryDy=0;entryPerimeter=0;" parent="1" source="g-nUi3LQODRrrPmQ_lGY-208" target="g-nUi3LQODRrrPmQ_lGY-10" edge="1">
          <mxGeometry width="100" height="100" relative="1" as="geometry">
            <mxPoint y="550" as="sourcePoint"/>
            <mxPoint x="230" y="400" as="targetPoint"/>
          </mxGeometry>
        </mxCell>
        <mxCell id="g-nUi3LQODRrrPmQ_lGY-218" value="" style="edgeStyle=entityRelationEdgeStyle;fontSize=12;html=1;endArrow=ERmany;startArrow=ERmany;rounded=0;entryX=0.005;entryY=0.322;entryDx=0;entryDy=0;exitX=1;exitY=0.5;exitDx=0;exitDy=0;entryPerimeter=0;" parent="1" source="g-nUi3LQODRrrPmQ_lGY-139" target="g-nUi3LQODRrrPmQ_lGY-211" edge="1">
          <mxGeometry width="100" height="100" relative="1" as="geometry">
            <mxPoint x="-610" y="592" as="sourcePoint"/>
            <mxPoint x="-389" y="490" as="targetPoint"/>
          </mxGeometry>
        </mxCell>
      </root>
    </mxGraphModel>
  </diagram>
</mxfile>